<?xml version="1.0" encoding="UTF-8"?>
<svg width="142px" height="64px" viewBox="0 0 142 64" version="1.1" xmlns="http://www.w3.org/2000/svg" xmlns:xlink="http://www.w3.org/1999/xlink">
    <title>blog</title>
    <g id="blog" stroke="none" stroke-width="1" fill="none" fill-rule="evenodd">
        <rect id="Rectangle-Copy-3" fill="#F0F0F0" x="0" y="0" width="142" height="64" rx="15"></rect>
        <text id="Blog-Copy" font-family="SFProDisplay-Regular, SF Pro Display" font-size="36" font-weight="normal" line-spacing="36" fill="#23292E">
            <tspan x="60" y="48">Blog</tspan>
        </text>
        <g id="rss_feed_black_24dp-copy" transform="translate(14.000000, 16.000000)" fill="#23292E" fill-rule="nonzero">
            <circle id="Oval" cx="4.50454588" cy="27.4986461" r="4.50454588"></circle>
            <path d="M3.28542566,11.8153878 C1.54972909,11.526105 0,12.9518558 0,14.7082154 C0,16.1752923 1.09514189,17.3530864 2.5415557,17.601043 C8.57516761,18.6548588 13.3276701,23.4280244 14.402149,29.4616363 C14.6501056,30.9080501 15.8278997,32.003192 17.2949766,32.003192 C19.0513362,32.003192 20.477087,30.4534629 20.2084673,28.7177664 C18.8033796,20.0392835 11.9639085,13.1998124 3.28542566,11.8153878 L3.28542566,11.8153878 Z M3.2234365,0.0167836794 C1.50840298,-0.169183811 0,1.21524084 0,2.93027436 C0,4.43867734 1.136468,5.67846061 2.62420792,5.82310199 C15.0427037,7.06288526 24.9196437,16.9398253 26.159427,29.358321 C26.3040684,30.866724 27.5438516,32.003192 29.0522546,32.003192 C30.7879512,32.003192 32.1517128,30.494789 31.9864083,28.7797555 C30.4780054,13.6130735 18.4107815,1.52518666 3.2234365,0.0167836794 Z" id="Shape"></path>
        </g>
    </g>
</svg>