<?xml version="1.0" encoding="UTF-8"?>
<svg width="184px" height="64px" viewBox="0 0 184 64" version="1.1" xmlns="http://www.w3.org/2000/svg" xmlns:xlink="http://www.w3.org/1999/xlink">
    <title>donate</title>
    <g id="donate" stroke="none" stroke-width="1" fill="none" fill-rule="evenodd">
        <rect id="Rectangle-Copy-5" fill="#F0F0F0" x="0" y="0" width="184" height="64" rx="15"></rect>
        <text id="Donate-Copy" font-family="SFProDisplay-Regular, SF Pro Display" font-size="36" font-weight="normal" line-spacing="36" fill="#23292E">
            <tspan x="60" y="48">Donate</tspan>
        </text>
        <path d="M39.7777778,16 L17.5555556,16 C15.6,16 14,17.6 14,19.5555556 L14,29.7066667 C14,36.5155556 19.2444444,42.4711111 26.0533333,42.6666667 C33.0933333,42.88 38.8888889,37.2266667 38.8888889,30.2222222 L38.8888889,28.4444444 L39.7777778,28.4444444 C43.2088889,28.4444444 46,25.6533333 46,22.2222222 C46,18.7911111 43.2088889,16 39.7777778,16 Z M35.3333333,19.5555556 L35.3333333,24.8888889 L17.5555556,24.8888889 L17.5555556,19.5555556 L35.3333333,19.5555556 Z M39.7777778,24.8888889 L38.8888889,24.8888889 L38.8888889,19.5555556 L39.7777778,19.5555556 C41.2533333,19.5555556 42.4444444,20.7466667 42.4444444,22.2222222 C42.4444444,23.6977778 41.2533333,24.8888889 39.7777778,24.8888889 Z M15.7777778,44.4444444 L40.6666667,44.4444444 C41.6444444,44.4444444 42.4444444,45.2444444 42.4444444,46.2222222 L42.4444444,46.2222222 C42.4444444,47.2 41.6444444,48 40.6666667,48 L15.7777778,48 C14.8,48 14,47.2 14,46.2222222 L14,46.2222222 C14,45.2444444 14.8,44.4444444 15.7777778,44.4444444 Z" id="Shape-Copy" fill="#23292E" fill-rule="nonzero"></path>
    </g>
</svg>