<?xml version="1.0" encoding="UTF-8"?>
<svg width="184px" height="64px" viewBox="0 0 184 64" version="1.1" xmlns="http://www.w3.org/2000/svg" xmlns:xlink="http://www.w3.org/1999/xlink">
    <title>donate</title>
    <g id="donate" stroke="none" stroke-width="1" fill="none" fill-rule="evenodd">
        <rect id="Rectangle-Copy-5" fill="#F0F0F0" x="0" y="0" width="184" height="64" rx="15"></rect>
        <g id="Donate-Copy" transform="translate(62.792969, 19.634766)" fill="#23292E" fill-rule="nonzero">
            <path d="M0,25.3652344 L8.52539062,25.3652344 C16.0664062,25.3652344 20.4960938,20.671875 20.4960938,12.6738281 L20.4960938,12.6386719 C20.4960938,4.67578125 16.03125,0 8.52539062,0 L0,0 L0,25.3652344 Z M3.1640625,22.5175781 L3.1640625,2.84765625 L8.31445312,2.84765625 C14.0625,2.84765625 17.2617188,6.34570312 17.2617188,12.6738281 L17.2617188,12.7089844 C17.2617188,19.0019531 14.0625,22.5175781 8.31445312,22.5175781 L3.1640625,22.5175781 Z" id="Shape"></path>
            <path d="M31.5351562,25.7167969 C36.5800781,25.7167969 39.9902344,22.0605469 39.9902344,16.2246094 L39.9902344,16.1894531 C39.9902344,10.3535156 36.5625,6.73242188 31.5175781,6.73242188 C26.4726562,6.73242188 23.0625,10.3710938 23.0625,16.1894531 L23.0625,16.2246094 C23.0625,22.0429688 26.4550781,25.7167969 31.5351562,25.7167969 Z M31.5527344,23.0097656 C28.3183594,23.0097656 26.1914062,20.53125 26.1914062,16.2246094 L26.1914062,16.1894531 C26.1914062,11.9179688 28.3359375,9.43945312 31.5175781,9.43945312 C34.7519531,9.43945312 36.8613281,11.9003906 36.8613281,16.1894531 L36.8613281,16.2246094 C36.8613281,20.5136719 34.7695312,23.0097656 31.5527344,23.0097656 Z" id="Shape"></path>
            <path d="M43.0664062,25.3652344 L46.125,25.3652344 L46.125,14.6074219 C46.125,11.4960938 48.0058594,9.43945312 50.8886719,9.43945312 C53.7011719,9.43945312 55.0898438,11.0742188 55.0898438,14.0449219 L55.0898438,25.3652344 L58.1484375,25.3652344 L58.1484375,13.5 C58.1484375,9.33398438 55.828125,6.73242188 51.8203125,6.73242188 C49.0429688,6.73242188 47.1796875,7.98046875 46.1953125,9.68554688 L46.125,9.68554688 L46.125,7.08398438 L43.0664062,7.08398438 L43.0664062,25.3652344 Z" id="Path"></path>
            <path d="M67.3769531,25.7167969 C69.8203125,25.7167969 72.0175781,24.3984375 73.0898438,22.3945312 L73.1601562,22.3945312 L73.1601562,25.3652344 L76.21875,25.3652344 L76.21875,12.7265625 C76.21875,9.0703125 73.5117188,6.73242188 69.1875,6.73242188 C64.8808594,6.73242188 62.2617188,9.15820312 61.9980469,12.1640625 L61.9804688,12.3574219 L64.9335938,12.3574219 L64.96875,12.1992188 C65.3203125,10.5644531 66.796875,9.43945312 69.1523438,9.43945312 C71.7011719,9.43945312 73.1601562,10.7929688 73.1601562,13.0253906 L73.1601562,14.5546875 L67.921875,14.8535156 C63.7207031,15.0996094 61.2949219,17.0507812 61.2949219,20.1621094 L61.2949219,20.1972656 C61.2949219,23.5195312 63.7382812,25.7167969 67.3769531,25.7167969 Z M64.4238281,20.1972656 L64.4238281,20.1621094 C64.4238281,18.4570312 65.8300781,17.3671875 68.2734375,17.2265625 L73.1601562,16.9277344 L73.1601562,18.421875 C73.1601562,21.0761719 70.9453125,23.0625 68.0625,23.0625 C65.8652344,23.0625 64.4238281,21.9550781 64.4238281,20.1972656 Z" id="Shape"></path>
            <path d="M86.0449219,25.7167969 C86.6425781,25.7167969 87.2929688,25.6464844 87.6796875,25.59375 L87.6796875,23.1152344 C87.4160156,23.1328125 87.0644531,23.1855469 86.6953125,23.1855469 C85.0605469,23.1855469 84.1992188,22.640625 84.1992188,20.6894531 L84.1992188,9.61523438 L87.6796875,9.61523438 L87.6796875,7.08398438 L84.1992188,7.08398438 L84.1992188,2.14453125 L81.0351562,2.14453125 L81.0351562,7.08398438 L78.3632812,7.08398438 L78.3632812,9.61523438 L81.0351562,9.61523438 L81.0351562,20.7070312 C81.0351562,24.2050781 82.6875,25.7167969 86.0449219,25.7167969 Z" id="Path"></path>
            <path d="M97.9453125,25.7167969 C101.935547,25.7167969 104.923828,23.3261719 105.521484,20.3027344 L105.556641,20.1269531 L102.550781,20.1269531 L102.498047,20.2851562 C101.970703,21.8496094 100.335938,23.0097656 98.015625,23.0097656 C94.7636719,23.0097656 92.6894531,20.8125 92.6191406,17.0507812 L105.785156,17.0507812 L105.785156,15.9257812 C105.785156,10.4414062 102.744141,6.73242188 97.7519531,6.73242188 C92.7597656,6.73242188 89.5253906,10.6171875 89.5253906,16.2773438 L89.5253906,16.2949219 C89.5253906,22.0429688 92.6894531,25.7167969 97.9453125,25.7167969 Z M97.734375,9.43945312 C100.40625,9.43945312 102.375,11.109375 102.673828,14.6601562 L92.671875,14.6601562 C93.0058594,11.25 95.0800781,9.43945312 97.734375,9.43945312 Z" id="Shape"></path>
        </g>
        <path d="M39.7777778,16 L17.5555556,16 C15.6,16 14,17.6 14,19.5555556 L14,29.7066667 C14,36.5155556 19.2444444,42.4711111 26.0533333,42.6666667 C33.0933333,42.88 38.8888889,37.2266667 38.8888889,30.2222222 L38.8888889,28.4444444 L39.7777778,28.4444444 C43.2088889,28.4444444 46,25.6533333 46,22.2222222 C46,18.7911111 43.2088889,16 39.7777778,16 Z M35.3333333,19.5555556 L35.3333333,24.8888889 L17.5555556,24.8888889 L17.5555556,19.5555556 L35.3333333,19.5555556 Z M39.7777778,24.8888889 L38.8888889,24.8888889 L38.8888889,19.5555556 L39.7777778,19.5555556 C41.2533333,19.5555556 42.4444444,20.7466667 42.4444444,22.2222222 C42.4444444,23.6977778 41.2533333,24.8888889 39.7777778,24.8888889 Z M15.7777778,44.4444444 L40.6666667,44.4444444 C41.6444444,44.4444444 42.4444444,45.2444444 42.4444444,46.2222222 L42.4444444,46.2222222 C42.4444444,47.2 41.6444444,48 40.6666667,48 L15.7777778,48 C14.8,48 14,47.2 14,46.2222222 L14,46.2222222 C14,45.2444444 14.8,44.4444444 15.7777778,44.4444444 Z" id="Shape-Copy" fill="#23292E" fill-rule="nonzero"></path>
    </g>
</svg>