<?xml version="1.0" encoding="UTF-8"?>
<svg width="186px" height="64px" viewBox="0 0 186 64" version="1.1" xmlns="http://www.w3.org/2000/svg" xmlns:xlink="http://www.w3.org/1999/xlink">
    <title>github</title>
    <g id="github" stroke="none" stroke-width="1" fill="none" fill-rule="evenodd">
        <rect id="Rectangle" fill="#F0F0F0" x="0" y="0" width="186" height="64" rx="15"></rect>
        <path d="M35,14 C25.055,14 17,22.2641286 17,32.4570152 C17,40.6134778 22.157,47.5302443 29.3075,49.9681084 C30.2075,50.1419119 30.5375,49.5712826 30.5375,49.0806336 C30.5375,48.6422795 30.5225,47.4810256 30.515,45.942941 C25.508,47.0565142 24.452,43.4666248 24.452,43.4666248 C23.633,41.3363776 22.4495,40.7672863 22.4495,40.7672863 C20.819,39.6229514 22.5755,39.6460226 22.5755,39.6460226 C24.383,39.7752217 25.3325,41.5470952 25.3325,41.5470952 C26.9375,44.3694804 29.546,43.5542956 30.575,43.0821036 C30.737,41.88855 31.2005,41.0749032 31.715,40.6134778 C27.7175,40.1520525 23.516,38.5647492 23.516,31.4926362 C23.516,29.4777453 24.2135,27.8319948 25.3685,26.5400037 C25.166,26.0739641 24.5585,24.1975009 25.526,21.6550471 C25.526,21.6550471 27.0335,21.1597838 30.476,23.5468911 C31.916,23.1362225 33.446,22.9331954 34.976,22.9239669 C36.506,22.9331954 38.036,23.1362225 39.476,23.5468911 C42.896,21.1597838 44.4035,21.6550471 44.4035,21.6550471 C45.371,24.1975009 44.7635,26.0739641 44.5835,26.5400037 C45.731,27.8319948 46.4285,29.4777453 46.4285,31.4926362 C46.4285,38.5832062 42.221,40.144362 38.216,40.598097 C38.846,41.1518075 39.431,42.2838377 39.431,44.0126448 C39.431,46.4828087 39.4085,48.4669378 39.4085,49.0667908 C39.4085,49.5512875 39.7235,50.1280692 40.646,49.943499 C47.8475,47.5225539 53,40.6011732 53,32.4570152 C53,22.2641286 44.9405,14 35,14" id="Path" fill="#23292E" fill-rule="nonzero"></path>
        <g id="GitHub" transform="translate(63.590820, 19.212891)" fill="#23292E" fill-rule="nonzero">
            <path d="M11.6191406,26.2089844 C18.3867188,26.2089844 22.3769531,22.1484375 22.3769531,15.2929688 L22.3769531,12.8847656 L12.0585938,12.8847656 L12.0585938,15.6621094 L19.2128906,15.6621094 L19.2128906,16.1191406 C19.2128906,20.3730469 16.1191406,23.2910156 11.6191406,23.2910156 C6.45117187,23.2910156 3.234375,19.3535156 3.234375,12.9726562 L3.234375,12.9550781 C3.234375,6.69726562 6.3984375,2.91796875 11.6191406,2.91796875 C15.1875,2.91796875 17.6484375,4.76367188 18.8261719,7.98046875 L18.8964844,8.17382812 L22.21875,8.17382812 L22.1308594,7.83984375 C20.953125,3.35742188 17.4550781,0 11.6191406,0 C4.53515625,0 0,5.02734375 0,12.9550781 L0,12.9726562 C0,21.0585938 4.53515625,26.2089844 11.6191406,26.2089844 Z" id="Path"></path>
            <path d="M27.6679688,4.41210938 C28.7402344,4.41210938 29.5839844,3.55078125 29.5839844,2.49609375 C29.5839844,1.42382812 28.7402344,0.580078125 27.6679688,0.580078125 C26.6132812,0.580078125 25.7519531,1.42382812 25.7519531,2.49609375 C25.7519531,3.55078125 26.6132812,4.41210938 27.6679688,4.41210938 Z M26.1386719,25.7871094 L29.1972656,25.7871094 L29.1972656,7.50585938 L26.1386719,7.50585938 L26.1386719,25.7871094 Z" id="Shape"></path>
            <path d="M39.3046875,26.1386719 C39.9023438,26.1386719 40.5527344,26.0683594 40.9394531,26.015625 L40.9394531,23.5371094 C40.6757812,23.5546875 40.3242188,23.6074219 39.9550781,23.6074219 C38.3203125,23.6074219 37.4589844,23.0625 37.4589844,21.1113281 L37.4589844,10.0371094 L40.9394531,10.0371094 L40.9394531,7.50585938 L37.4589844,7.50585938 L37.4589844,2.56640625 L34.2949219,2.56640625 L34.2949219,7.50585938 L31.6230469,7.50585938 L31.6230469,10.0371094 L34.2949219,10.0371094 L34.2949219,21.1289062 C34.2949219,24.6269531 35.9472656,26.1386719 39.3046875,26.1386719 Z" id="Path"></path>
            <polygon id="Path" points="44.6835938 25.7871094 47.8476562 25.7871094 47.8476562 14.2382812 61.7695312 14.2382812 61.7695312 25.7871094 64.9335938 25.7871094 64.9335938 0.421875 61.7695312 0.421875 61.7695312 11.390625 47.8476562 11.390625 47.8476562 0.421875 44.6835938 0.421875"></polygon>
            <path d="M75.6210938,26.1386719 C78.3984375,26.1386719 80.2617188,24.890625 81.2460938,23.1855469 L81.3164062,23.1855469 L81.3164062,25.7871094 L84.375,25.7871094 L84.375,7.50585938 L81.3164062,7.50585938 L81.3164062,18.2636719 C81.3164062,21.375 79.4355469,23.4316406 76.5527344,23.4316406 C73.7402344,23.4316406 72.3515625,21.796875 72.3515625,18.8261719 L72.3515625,7.50585938 L69.2929688,7.50585938 L69.2929688,19.3710938 C69.2929688,23.5371094 71.6132812,26.1386719 75.6210938,26.1386719 Z" id="Path"></path>
            <path d="M97.4355469,26.1386719 C102.111328,26.1386719 105.205078,22.4121094 105.205078,16.6464844 L105.205078,16.6289062 C105.205078,10.8632812 102.076172,7.15429688 97.4882812,7.15429688 C94.9042969,7.15429688 92.7773438,8.45507812 91.6347656,10.5644531 L91.5644531,10.5644531 L91.5644531,0.421875 L88.5058594,0.421875 L88.5058594,25.7871094 L91.5644531,25.7871094 L91.5644531,22.6933594 L91.6347656,22.6933594 C92.7773438,24.8203125 94.8164062,26.1386719 97.4355469,26.1386719 Z M96.8378906,23.4316406 C93.7441406,23.4316406 91.546875,20.7421875 91.546875,16.6464844 L91.546875,16.6289062 C91.546875,12.5507812 93.7617188,9.86132812 96.8378906,9.86132812 C100.072266,9.86132812 102.076172,12.4628906 102.076172,16.6289062 L102.076172,16.6464844 C102.076172,20.8476562 100.072266,23.4316406 96.8378906,23.4316406 Z" id="Shape"></path>
        </g>
    </g>
</svg>