<?xml version="1.0" encoding="UTF-8"?>
<svg width="186px" height="64px" viewBox="0 0 186 64" version="1.1" xmlns="http://www.w3.org/2000/svg" xmlns:xlink="http://www.w3.org/1999/xlink">
    <title>github</title>
    <g id="github" stroke="none" stroke-width="1" fill="none" fill-rule="evenodd">
        <rect id="Rectangle" fill="#F0F0F0" x="0" y="0" width="186" height="64" rx="15"></rect>
        <path d="M35,14 C25.055,14 17,22.2641286 17,32.4570152 C17,40.6134778 22.157,47.5302443 29.3075,49.9681084 C30.2075,50.1419119 30.5375,49.5712826 30.5375,49.0806336 C30.5375,48.6422795 30.5225,47.4810256 30.515,45.942941 C25.508,47.0565142 24.452,43.4666248 24.452,43.4666248 C23.633,41.3363776 22.4495,40.7672863 22.4495,40.7672863 C20.819,39.6229514 22.5755,39.6460226 22.5755,39.6460226 C24.383,39.7752217 25.3325,41.5470952 25.3325,41.5470952 C26.9375,44.3694804 29.546,43.5542956 30.575,43.0821036 C30.737,41.88855 31.2005,41.0749032 31.715,40.6134778 C27.7175,40.1520525 23.516,38.5647492 23.516,31.4926362 C23.516,29.4777453 24.2135,27.8319948 25.3685,26.5400037 C25.166,26.0739641 24.5585,24.1975009 25.526,21.6550471 C25.526,21.6550471 27.0335,21.1597838 30.476,23.5468911 C31.916,23.1362225 33.446,22.9331954 34.976,22.9239669 C36.506,22.9331954 38.036,23.1362225 39.476,23.5468911 C42.896,21.1597838 44.4035,21.6550471 44.4035,21.6550471 C45.371,24.1975009 44.7635,26.0739641 44.5835,26.5400037 C45.731,27.8319948 46.4285,29.4777453 46.4285,31.4926362 C46.4285,38.5832062 42.221,40.144362 38.216,40.598097 C38.846,41.1518075 39.431,42.2838377 39.431,44.0126448 C39.431,46.4828087 39.4085,48.4669378 39.4085,49.0667908 C39.4085,49.5512875 39.7235,50.1280692 40.646,49.943499 C47.8475,47.5225539 53,40.6011732 53,32.4570152 C53,22.2641286 44.9405,14 35,14" id="Path" fill="#23292E" fill-rule="nonzero"></path>
        <text id="GitHub" font-family="SFProDisplay-Regular, SF Pro Display" font-size="36" font-weight="normal" line-spacing="36" fill="#23292E">
            <tspan x="62" y="48">GitHub</tspan>
        </text>
    </g>
</svg>