<?xml version="1.0" encoding="UTF-8"?>
<svg width="228px" height="64px" viewBox="0 0 228 64" version="1.1" xmlns="http://www.w3.org/2000/svg" xmlns:xlink="http://www.w3.org/1999/xlink">
    <title>instagram</title>
    <g id="instagram" stroke="none" stroke-width="1" fill="none" fill-rule="evenodd">
        <rect id="Rectangle-Copy" fill="#F0F0F0" x="0" y="0" width="228" height="64" rx="15"></rect>
        <text id="Instagram" font-family="SFProDisplay-Regular, SF Pro Display" font-size="36" font-weight="normal" line-spacing="36" fill="#23292E">
            <tspan x="64" y="48">Instagram</tspan>
        </text>
        <path d="M32,14 C27.11,14 26.4995,14.0225 24.5795,14.108 C22.6625,14.198 21.3575,14.4995 20.21,14.945 C19.0265,15.404 18.0215,16.0205 17.021,17.021 C16.0205,18.0215 15.4025,19.025 14.945,20.21 C14.4995,21.3575 14.1965,22.6625 14.108,24.5795 C14.018,26.4995 14,27.11 14,32 C14,36.89 14.0225,37.5005 14.108,39.4205 C14.198,41.336 14.4995,42.6425 14.945,43.79 C15.404,44.972 16.0205,45.9785 17.021,46.979 C18.0215,47.978 19.025,48.5975 20.21,49.055 C21.359,49.499 22.664,49.8035 24.5795,49.892 C26.4995,49.982 27.11,50 32,50 C36.89,50 37.5005,49.9775 39.4205,49.892 C41.336,49.802 42.6425,49.499 43.79,49.055 C44.972,48.596 45.9785,47.978 46.979,46.979 C47.978,45.9785 48.5975,44.9765 49.055,43.79 C49.499,42.6425 49.8035,41.336 49.892,39.4205 C49.982,37.5005 50,36.89 50,32 C50,27.11 49.9775,26.4995 49.892,24.5795 C49.802,22.664 49.499,21.356 49.055,20.21 C48.596,19.0265 47.978,18.0215 46.979,17.021 C45.9785,16.0205 44.9765,15.4025 43.79,14.945 C42.6425,14.4995 41.336,14.1965 39.4205,14.108 C37.5005,14.018 36.89,14 32,14 Z M32,17.24 C36.8045,17.24 37.3775,17.264 39.275,17.3465 C41.03,17.429 41.9825,17.72 42.6155,17.969 C43.4585,18.2945 44.0555,18.6845 44.6885,19.313 C45.317,19.943 45.707,20.5415 46.0325,21.3845 C46.2785,22.0175 46.5725,22.97 46.652,24.725 C46.7375,26.624 46.757,27.194 46.757,32 C46.757,36.806 46.7345,37.3775 46.646,39.275 C46.5545,41.03 46.262,41.9825 46.0145,42.6155 C45.6785,43.4585 45.296,44.0555 44.666,44.6885 C44.0375,45.317 43.43,45.707 42.596,46.0325 C41.966,46.2785 40.9985,46.5725 39.2435,46.652 C37.3325,46.7375 36.77,46.757 31.955,46.757 C27.1385,46.757 26.576,46.7345 24.6665,46.646 C22.91,46.5545 21.9425,46.262 21.3125,46.0145 C20.459,45.6785 19.8725,45.296 19.244,44.666 C18.6125,44.0375 18.209,43.43 17.894,42.596 C17.6465,41.966 17.3555,40.9985 17.264,39.2435 C17.1965,37.3535 17.1725,36.77 17.1725,31.9775 C17.1725,27.1835 17.1965,26.5985 17.264,24.686 C17.3555,22.931 17.6465,21.965 17.894,21.335 C18.209,20.48 18.6125,19.895 19.244,19.2635 C19.8725,18.635 20.459,18.23 21.3125,17.9165 C21.9425,17.6675 22.889,17.375 24.644,17.285 C26.5565,17.2175 27.119,17.195 31.9325,17.195 L32,17.24 L32,17.24 Z M32,22.757 C26.8925,22.757 22.757,26.897 22.757,32 C22.757,37.1075 26.897,41.243 32,41.243 C37.1075,41.243 41.243,37.103 41.243,32 C41.243,26.8925 37.103,22.757 32,22.757 Z M32,38 C28.685,38 26,35.315 26,32 C26,28.685 28.685,26 32,26 C35.315,26 38,28.685 38,32 C38,35.315 35.315,38 32,38 Z M43.769,22.3925 C43.769,23.585 42.8,24.5525 41.609,24.5525 C40.4165,24.5525 39.449,23.5835 39.449,22.3925 C39.449,21.2015 40.418,20.2339983 41.609,20.2339983 C42.7985,20.2325 43.769,21.2015 43.769,22.3925 Z" id="Shape" fill="#23292E" fill-rule="nonzero"></path>
    </g>
</svg>