<?xml version="1.0" encoding="UTF-8"?>
<svg width="259px" height="64px" viewBox="0 0 259 64" version="1.1" xmlns="http://www.w3.org/2000/svg" xmlns:xlink="http://www.w3.org/1999/xlink">
    <title>kinopoisk</title>
    <g id="kinopoisk" stroke="none" stroke-width="1" fill="none" fill-rule="evenodd">
        <rect id="Rectangle-Copy" fill="#F0F0F0" x="0" y="0" width="259" height="64" rx="15"></rect>
        <path d="M48.9100061,38.1546716 C45.5109797,47.4937055 35.1844497,52.3090229 25.8453773,48.9098606 C16.5063049,45.5108483 11.6909675,35.1845108 15.0901439,25.8454769 C18.4891703,16.506293 28.8155503,11.6909755 38.1546227,15.0901379 C47.4936951,18.4891502 52.3090325,28.8156377 48.9098561,38.1546716 L48.9100061,38.1546716 Z M34.1138914,32.769352 C34.5386947,31.6018978 33.93689,30.3111431 32.769431,29.8863416 C31.6019719,29.46139 30.3112119,30.0633422 29.8864086,31.2306464 C29.4614553,32.3981007 30.06341,33.6888554 31.230719,34.1136569 C32.3981781,34.5386084 33.6889381,33.9366563 34.1137414,32.769352 L34.1138914,32.769352 Z M27.5783407,37.5719194 C28.4280973,35.237161 27.224338,32.6555016 24.8894199,31.8057485 C22.5546518,30.9559954 19.9731318,32.1597498 19.1233752,34.4945083 C18.2734686,36.8292668 19.4773779,39.4109261 21.812146,40.2606792 C24.1469141,41.1104323 26.7284341,39.9066779 27.5781907,37.5719194 L27.5783407,37.5719194 Z M32.1943265,24.8893734 C33.0440831,22.554615 31.8403238,19.9731056 29.5055557,19.1233525 C27.1707876,18.2734494 24.5891175,19.4773538 23.739361,21.8121123 C22.8896044,24.1468707 24.0933637,26.7283801 26.4281318,27.5781332 C28.7628999,28.4280363 31.3445699,27.2241319 32.1943265,24.8893734 Z M44.8769248,29.5054902 C45.7266814,27.1707317 44.5229221,24.5890723 42.188004,23.7393193 C39.8532359,22.8895662 37.2717159,24.0933205 36.4219593,26.428079 C35.5720527,28.7628375 36.775962,31.3444968 39.1107301,32.1942499 C41.4454982,33.044003 44.0270182,31.8402486 44.8767748,29.5054902 L44.8769248,29.5054902 Z M40.260789,42.1880362 C41.1105456,39.8531277 39.9067863,37.2714684 37.5720182,36.4217153 C35.2372501,35.5719622 32.6555801,36.7757166 31.8058235,39.110625 C30.9560669,41.4453835 32.1598262,44.0268929 34.4945943,44.876646 C36.8293624,45.726549 39.4110325,44.5226447 40.260789,42.1878862 L40.260789,42.1880362 Z" id="Shape" fill="#23292E" fill-rule="nonzero"></path>
        <g id="КиноПоиск" transform="translate(67.004883, 19.634766)" fill="#23292E" fill-rule="nonzero">
            <polygon id="Path" points="3.1640625 25.3652344 3.1640625 13.6757812 4.21875 13.6757812 14.9589844 25.3652344 19.2128906 25.3652344 6.85546875 12.1113281 18.0351562 0 14.0625 0 4.21875 11.1445312 3.1640625 11.1445312 3.1640625 0 0 0 0 25.3652344"></polygon>
            <polygon id="Path" points="21.234375 25.3652344 24.2578125 25.3652344 33.3632812 11.7773438 33.5039062 11.7773438 33.5039062 25.3652344 36.5625 25.3652344 36.5625 7.08398438 33.5390625 7.08398438 24.4335938 20.671875 24.2929688 20.671875 24.2929688 7.08398438 21.234375 7.08398438"></polygon>
            <polygon id="Path" points="52.8574219 25.3652344 55.9160156 25.3652344 55.9160156 7.08398438 52.8574219 7.08398438 52.8574219 14.625 43.9101562 14.625 43.9101562 7.08398438 40.8515625 7.08398438 40.8515625 25.3652344 43.9101562 25.3652344 43.9101562 17.15625 52.8574219 17.15625"></polygon>
            <path d="M67.7988281,25.7167969 C72.84375,25.7167969 76.2539062,22.0605469 76.2539062,16.2246094 L76.2539062,16.1894531 C76.2539062,10.3535156 72.8261719,6.73242188 67.78125,6.73242188 C62.7363281,6.73242188 59.3261719,10.3710938 59.3261719,16.1894531 L59.3261719,16.2246094 C59.3261719,22.0429688 62.71875,25.7167969 67.7988281,25.7167969 Z M67.8164062,23.0097656 C64.5820312,23.0097656 62.4550781,20.53125 62.4550781,16.2246094 L62.4550781,16.1894531 C62.4550781,11.9179688 64.5996094,9.43945312 67.78125,9.43945312 C71.015625,9.43945312 73.125,11.9003906 73.125,16.1894531 L73.125,16.2246094 C73.125,20.5136719 71.0332031,23.0097656 67.8164062,23.0097656 Z" id="Shape"></path>
            <polygon id="Path" points="100.054688 25.3652344 100.054688 0 80.15625 0 80.15625 25.3652344 83.3203125 25.3652344 83.3203125 2.84765625 96.890625 2.84765625 96.890625 25.3652344"></polygon>
            <path d="M112.429688,25.7167969 C117.474609,25.7167969 120.884766,22.0605469 120.884766,16.2246094 L120.884766,16.1894531 C120.884766,10.3535156 117.457031,6.73242188 112.412109,6.73242188 C107.367188,6.73242188 103.957031,10.3710938 103.957031,16.1894531 L103.957031,16.2246094 C103.957031,22.0429688 107.349609,25.7167969 112.429688,25.7167969 Z M112.447266,23.0097656 C109.212891,23.0097656 107.085938,20.53125 107.085938,16.2246094 L107.085938,16.1894531 C107.085938,11.9179688 109.230469,9.43945312 112.412109,9.43945312 C115.646484,9.43945312 117.755859,11.9003906 117.755859,16.1894531 L117.755859,16.2246094 C117.755859,20.5136719 115.664062,23.0097656 112.447266,23.0097656 Z" id="Shape"></path>
            <polygon id="Path" points="124.294922 25.3652344 127.318359 25.3652344 136.423828 11.7773438 136.564453 11.7773438 136.564453 25.3652344 139.623047 25.3652344 139.623047 7.08398438 136.599609 7.08398438 127.494141 20.671875 127.353516 20.671875 127.353516 7.08398438 124.294922 7.08398438"></polygon>
            <path d="M151.505859,25.7167969 C155.636719,25.7167969 158.642578,23.0273438 159.134766,19.546875 L159.152344,19.4238281 L156.146484,19.4238281 L156.111328,19.5644531 C155.601562,21.6035156 154.001953,23.0097656 151.505859,23.0097656 C148.341797,23.0097656 146.162109,20.4960938 146.162109,16.2421875 L146.162109,16.2246094 C146.162109,12.0761719 148.289062,9.43945312 151.470703,9.43945312 C154.160156,9.43945312 155.636719,11.0566406 156.09375,12.8847656 L156.128906,13.0253906 L159.117188,13.0253906 L159.099609,12.8847656 C158.712891,9.75585938 156.023438,6.73242188 151.470703,6.73242188 C146.390625,6.73242188 143.033203,10.4238281 143.033203,16.1894531 L143.033203,16.2070312 C143.033203,22.0253906 146.320312,25.7167969 151.505859,25.7167969 Z" id="Path"></path>
            <polygon id="Path" points="166.060547 16.9277344 173.355469 25.3652344 177.222656 25.3652344 168.820312 15.7324219 176.976562 7.08398438 173.267578 7.08398438 166.060547 14.8183594 165.357422 14.8183594 165.357422 7.08398438 162.298828 7.08398438 162.298828 25.3652344 165.357422 25.3652344 165.357422 16.9277344"></polygon>
        </g>
    </g>
</svg>