<?xml version="1.0" encoding="UTF-8"?>
<svg width="259px" height="64px" viewBox="0 0 259 64" version="1.1" xmlns="http://www.w3.org/2000/svg" xmlns:xlink="http://www.w3.org/1999/xlink">
    <title>kinopoisk</title>
    <g id="kinopoisk" stroke="none" stroke-width="1" fill="none" fill-rule="evenodd">
        <rect id="Rectangle-Copy" fill="#F0F0F0" x="0" y="0" width="259" height="64" rx="15"></rect>
        <path d="M48.9100061,38.1546716 C45.5109797,47.4937055 35.1844497,52.3090229 25.8453773,48.9098606 C16.5063049,45.5108483 11.6909675,35.1845108 15.0901439,25.8454769 C18.4891703,16.506293 28.8155503,11.6909755 38.1546227,15.0901379 C47.4936951,18.4891502 52.3090325,28.8156377 48.9098561,38.1546716 L48.9100061,38.1546716 Z M34.1138914,32.769352 C34.5386947,31.6018978 33.93689,30.3111431 32.769431,29.8863416 C31.6019719,29.46139 30.3112119,30.0633422 29.8864086,31.2306464 C29.4614553,32.3981007 30.06341,33.6888554 31.230719,34.1136569 C32.3981781,34.5386084 33.6889381,33.9366563 34.1137414,32.769352 L34.1138914,32.769352 Z M27.5783407,37.5719194 C28.4280973,35.237161 27.224338,32.6555016 24.8894199,31.8057485 C22.5546518,30.9559954 19.9731318,32.1597498 19.1233752,34.4945083 C18.2734686,36.8292668 19.4773779,39.4109261 21.812146,40.2606792 C24.1469141,41.1104323 26.7284341,39.9066779 27.5781907,37.5719194 L27.5783407,37.5719194 Z M32.1943265,24.8893734 C33.0440831,22.554615 31.8403238,19.9731056 29.5055557,19.1233525 C27.1707876,18.2734494 24.5891175,19.4773538 23.739361,21.8121123 C22.8896044,24.1468707 24.0933637,26.7283801 26.4281318,27.5781332 C28.7628999,28.4280363 31.3445699,27.2241319 32.1943265,24.8893734 Z M44.8769248,29.5054902 C45.7266814,27.1707317 44.5229221,24.5890723 42.188004,23.7393193 C39.8532359,22.8895662 37.2717159,24.0933205 36.4219593,26.428079 C35.5720527,28.7628375 36.775962,31.3444968 39.1107301,32.1942499 C41.4454982,33.044003 44.0270182,31.8402486 44.8767748,29.5054902 L44.8769248,29.5054902 Z M40.260789,42.1880362 C41.1105456,39.8531277 39.9067863,37.2714684 37.5720182,36.4217153 C35.2372501,35.5719622 32.6555801,36.7757166 31.8058235,39.110625 C30.9560669,41.4453835 32.1598262,44.0268929 34.4945943,44.876646 C36.8293624,45.726549 39.4110325,44.5226447 40.260789,42.1878862 L40.260789,42.1880362 Z" id="Shape" fill="#23292E" fill-rule="nonzero"></path>
        <text id="КиноПоиск" font-family="SFProDisplay-Regular, SF Pro Display" font-size="36" font-weight="normal" line-spacing="36" fill="#23292E">
            <tspan x="64" y="48">КиноПоиск</tspan>
        </text>
    </g>
</svg>