<?xml version="1.0" encoding="UTF-8"?>
<svg width="208px" height="64px" viewBox="0 0 208 64" version="1.1" xmlns="http://www.w3.org/2000/svg" xmlns:xlink="http://www.w3.org/1999/xlink">
    <title>manager</title>
    <g id="manager" stroke="none" stroke-width="1" fill="none" fill-rule="evenodd">
        <rect id="Rectangle-Copy-5" fill="#F0F0F0" x="0" y="0" width="208" height="64" rx="15"></rect>
        <text id="Manager-Copy" font-family="SFProDisplay-Regular, SF Pro Display" font-size="36" font-weight="normal" line-spacing="36" fill="#23292E">
            <tspan x="60" y="48">Manager</tspan>
        </text>
        <path d="M30,32 C34.42,32 38,28.42 38,24 C38,19.58 34.42,16 30,16 C25.58,16 22,19.58 22,24 C22,28.42 25.58,32 30,32 Z M30,36 C24.66,36 14,38.68 14,44 L14,46 C14,47.1 14.9,48 16,48 L44,48 C45.1,48 46,47.1 46,46 L46,44 C46,38.68 35.34,36 30,36 Z" id="Shape-Copy" fill="#23292E" fill-rule="nonzero"></path>
    </g>
</svg>