<?xml version="1.0" encoding="UTF-8"?>
<svg width="216px" height="64px" viewBox="0 0 216 64" version="1.1" xmlns="http://www.w3.org/2000/svg" xmlns:xlink="http://www.w3.org/1999/xlink">
    <title>telegram</title>
    <g id="telegram" stroke="none" stroke-width="1" fill="none" fill-rule="evenodd">
        <rect id="Rectangle-Copy" fill="#F0F0F0" x="0" y="0" width="216" height="64" rx="15"></rect>
        <text id="Telegram" font-family="SFProDisplay-Regular, SF Pro Display" font-size="36" font-weight="normal" line-spacing="36" fill="#23292E">
            <tspan x="64" y="48">Telegram</tspan>
        </text>
        <path d="M31.916,14 C22.0076943,14.0462882 14,22.0916243 14,32.0000245 C14,41.9411365 22.0588745,50 32,50 C36.7738968,50 41.3522672,48.1035795 44.7279221,44.7279292 C48.1035769,41.352279 50,36.7739148 50,32.0000245 C50,22.0589125 41.9411255,14 32,14 C31.972,14 31.944,14 31.916,14 Z M39.359,24.8360343 C39.509,24.8330343 39.8405,24.8705342 40.0565,25.046034 C40.2000329,25.1706782 40.2915668,25.3446459 40.313,25.5335333 C40.337,25.6730331 40.367,25.9925327 40.343,26.2415323 C40.073,29.0885285 38.9,35.9945191 38.303,39.1820147 C38.051,40.5320129 37.5545,40.9835123 37.073,41.0270122 C36.029,41.1245121 35.2355,40.3370132 34.223,39.6740141 C32.639,38.6345155 31.7435,37.9880163 30.206,36.9740177 C28.4285,35.8040193 29.5805,35.1590202 30.593,34.1090216 C30.8585,33.833022 35.4635,29.6435277 35.5535,29.2640282 C35.564,29.2160283 35.5745,29.0390285 35.4695,28.9460287 C35.3645,28.8530288 35.2085,28.8845287 35.096,28.9100287 C34.937,28.9460287 32.4065,30.6200264 27.5045,33.9275219 C26.7845,34.4225212 26.135,34.6625209 25.5515,34.6475209 C24.9095,34.6355209 23.6735,34.2860214 22.754,33.9875218 C21.626,33.6200223 20.7305,33.4265226 20.8085,32.8040234 C20.849,32.4800238 21.296,32.1485243 22.148,31.8095248 C27.395,29.5235279 30.893,28.0160299 32.645,27.2885309 C37.643,25.2095337 38.6825,24.8480342 39.359,24.8360343 Z" id="Shape" fill="#23292E" fill-rule="nonzero"></path>
    </g>
</svg>